{
  "accessors": [
    {
      "bufferView": 1,
      "componentType": 5126,
      "count": 180,
      "max": [
        1.6339490413665771,
        -15.454645156860352,
        20.420928955078125
      ],
      "min": [
        -1.3847039937973022,
        -18.41770362854004,
        5.895671844482422
      ],
      "type": "VEC3"
    },
    {
      "bufferView": 1,
      "byteOffset": 2160,
      "componentType": 5126,
      "count": 180,
      "max": [
        0.9751854538917542,
        0.9818789958953857,
        0.9959511756896973
      ],
      "min": [
        -0.9789317846298218,
        -0.9818789958953857,
        -0.9959511756896973
      ],
      "type": "VEC3"
    },
    {
      "bufferView": 0,
      "componentType": 5125,
      "count": 240,
      "type": "SCALAR"
    }
  ],
  "asset": {
    "extras": {
      "author": "dudecon (https://sketchfab.com/dudecon)",
      "license": "CC-BY-4.0 (http://creativecommons.org/licenses/by/4.0/)",
      "source": "https://sketchfab.com/3d-models/platonic-solids-7164816e99be4286b951c4fd5ee5b235",
      "title": "Platonic Solids"
    },
    "generator": "Sketchfab-12.68.0",
    "version": "2.0"
  },
  "bufferViews": [
    {
      "buffer": 0,
      "byteLength": 960,
      "name": "floatBufferViews",
      "target": 34963
    },
    {
      "buffer": 0,
      "byteLength": 4320,
      "byteOffset": 960,
      "byteStride": 12,
      "name": "floatBufferViews",
      "target": 34962
    }
  ],
  "buffers": [
    {
      "byteLength": 5280,
      "uri": "scene.bin"
    }
  ],
  "extensionsUsed": [
    "KHR_materials_clearcoat"
  ],
  "materials": [
    {
      "doubleSided": true,
      "extensions": {
        "KHR_materials_clearcoat": {
          "clearcoatFactor": 1.0,
          "clearcoatRoughnessFactor": 0.04
        }
      },
      "name": "None",
      "pbrMetallicRoughness": {
        "baseColorFactor": [
          0.8042929062619704,
          0.8042929062619704,
          0.8042929062619704,
          1.0
        ],
        "metallicFactor": 0.0,
        "roughnessFactor": 0.6
      }
    }
  ],
  "meshes": [
    {
      "name": "Object_0",
      "primitives": [
        {
          "attributes": {
            "NORMAL": 1,
            "POSITION": 0
          },
          "indices": 2,
          "material": 0,
          "mode": 4
        }
      ]
    }
  ],
  "nodes": [
    {
      "children": [
        1
      ],
      "matrix": [
        2.220446049250313e-16,
        -1.0,
        -1.1102230246251565e-16,
        0.0,
        -1.7225464509177405e-16,
        -1.1102230246251565e-16,
        1.0,
        0.0,
        -1.0,
        -2.2204460492503126e-16,
        -1.722546450917741e-16,
        0.0,
        13.282917022705078,
        13.282917022705071,
        33.872337341308594,
        1.0
      ],
      "name": "Sketchfab_model"
    },
    {
      "children": [
        2
      ],
      "name": "0268688991e5413aafe898bb7bbd403f.obj.cleaner.materialmerger.gles"
    },
    {
      "mesh": 0,
      "name": "Object_2"
    }
  ],
  "scene": 0,
  "scenes": [
    {
      "name": "Sketchfab_Scene",
      "nodes": [
        0
      ]
    }
  ]
}
